<mxfile host="app.diagrams.net" agent="Mozilla/5.0 (Windows NT 10.0; Win64; x64) AppleWebKit/537.36 (KHTML, like Gecko) Chrome/130.0.0.0 Safari/537.36 Edg/130.0.0.0" version="24.8.1">
  <diagram name="Página-1" id="bFxpSZQwQ4sQWxXILlFT">
    <mxGraphModel dx="1426" dy="791" grid="1" gridSize="10" guides="1" tooltips="1" connect="1" arrows="1" fold="1" page="1" pageScale="1" pageWidth="827" pageHeight="1169" math="0" shadow="0">
      <root>
        <mxCell id="0" />
        <mxCell id="1" parent="0" />
        <mxCell id="PYaK-F818x8rUzXND0XR-12" style="edgeStyle=orthogonalEdgeStyle;rounded=0;orthogonalLoop=1;jettySize=auto;html=1;exitX=0.5;exitY=1;exitDx=0;exitDy=0;entryX=0.5;entryY=0;entryDx=0;entryDy=0;" edge="1" parent="1" source="PYaK-F818x8rUzXND0XR-1" target="PYaK-F818x8rUzXND0XR-2">
          <mxGeometry relative="1" as="geometry" />
        </mxCell>
        <mxCell id="PYaK-F818x8rUzXND0XR-1" value="Projeto: Síte E-ccomerc" style="rounded=1;whiteSpace=wrap;html=1;fillColor=#dae8fc;strokeColor=#6c8ebf;" vertex="1" parent="1">
          <mxGeometry x="240" y="50" width="260" height="60" as="geometry" />
        </mxCell>
        <mxCell id="PYaK-F818x8rUzXND0XR-8" style="edgeStyle=orthogonalEdgeStyle;rounded=0;orthogonalLoop=1;jettySize=auto;html=1;exitX=0.5;exitY=1;exitDx=0;exitDy=0;entryX=0.5;entryY=0;entryDx=0;entryDy=0;" edge="1" parent="1" source="PYaK-F818x8rUzXND0XR-2" target="PYaK-F818x8rUzXND0XR-3">
          <mxGeometry relative="1" as="geometry" />
        </mxCell>
        <mxCell id="PYaK-F818x8rUzXND0XR-2" value="Levantamento de Projeto" style="rounded=1;whiteSpace=wrap;html=1;fillColor=#fff2cc;strokeColor=#d6b656;" vertex="1" parent="1">
          <mxGeometry x="40" y="170" width="180" height="60" as="geometry" />
        </mxCell>
        <mxCell id="PYaK-F818x8rUzXND0XR-9" style="edgeStyle=orthogonalEdgeStyle;rounded=0;orthogonalLoop=1;jettySize=auto;html=1;exitX=0.5;exitY=1;exitDx=0;exitDy=0;entryX=0.5;entryY=0;entryDx=0;entryDy=0;" edge="1" parent="1" source="PYaK-F818x8rUzXND0XR-3" target="PYaK-F818x8rUzXND0XR-7">
          <mxGeometry relative="1" as="geometry" />
        </mxCell>
        <mxCell id="PYaK-F818x8rUzXND0XR-3" value="Escopo" style="rounded=1;whiteSpace=wrap;html=1;fillColor=#d5e8d4;strokeColor=#82b366;" vertex="1" parent="1">
          <mxGeometry x="40" y="280" width="180" height="60" as="geometry" />
        </mxCell>
        <mxCell id="PYaK-F818x8rUzXND0XR-11" style="edgeStyle=orthogonalEdgeStyle;rounded=0;orthogonalLoop=1;jettySize=auto;html=1;exitX=0.5;exitY=1;exitDx=0;exitDy=0;entryX=0.5;entryY=0;entryDx=0;entryDy=0;" edge="1" parent="1" source="PYaK-F818x8rUzXND0XR-4" target="PYaK-F818x8rUzXND0XR-5">
          <mxGeometry relative="1" as="geometry" />
        </mxCell>
        <mxCell id="PYaK-F818x8rUzXND0XR-4" value="Regras de Négocio&amp;nbsp;" style="rounded=1;whiteSpace=wrap;html=1;fillColor=#ffe6cc;strokeColor=#d79b00;" vertex="1" parent="1">
          <mxGeometry x="40" y="500" width="180" height="60" as="geometry" />
        </mxCell>
        <mxCell id="PYaK-F818x8rUzXND0XR-5" value="Levantamento de Requisitos" style="rounded=1;whiteSpace=wrap;html=1;fillColor=#ffe6cc;strokeColor=#d79b00;" vertex="1" parent="1">
          <mxGeometry x="40" y="620" width="180" height="60" as="geometry" />
        </mxCell>
        <mxCell id="PYaK-F818x8rUzXND0XR-10" style="edgeStyle=orthogonalEdgeStyle;rounded=0;orthogonalLoop=1;jettySize=auto;html=1;exitX=0.5;exitY=1;exitDx=0;exitDy=0;entryX=0.5;entryY=0;entryDx=0;entryDy=0;" edge="1" parent="1" source="PYaK-F818x8rUzXND0XR-7" target="PYaK-F818x8rUzXND0XR-4">
          <mxGeometry relative="1" as="geometry" />
        </mxCell>
        <mxCell id="PYaK-F818x8rUzXND0XR-7" value="Briefing" style="rounded=1;whiteSpace=wrap;html=1;fillColor=#ffe6cc;strokeColor=#d79b00;" vertex="1" parent="1">
          <mxGeometry x="40" y="390" width="180" height="60" as="geometry" />
        </mxCell>
      </root>
    </mxGraphModel>
  </diagram>
</mxfile>
